<?xml version="1.0" encoding="UTF-8" standalone="no"?><!DOCTYPE svg PUBLIC "-//W3C//DTD SVG 1.1//EN"
 "http://www.w3.org/Graphics/SVG/1.1/DTD/svg11.dtd"><!-- Generated by graphviz version 8.0.5 (20230430.1635)
 --><!-- Title: G Pages: 1 --><svg width="134pt" height="404pt"
 viewBox="0.00 0.00 134.00 404.00" xmlns="http://www.w3.org/2000/svg" xmlns:xlink="http://www.w3.org/1999/xlink"><g id="graph0" class="graph" transform="scale(1 1) rotate(0) translate(4 400)"><title>G</title><polygon fill="white" stroke="none" points="-4,4 -4,-400 130,-400 130,4 -4,4"/><!-- 2 --><g id="node1" class="node"><title>2</title><ellipse fill="none" stroke="black" cx="63" cy="-90" rx="27" ry="18"/><text text-anchor="middle" x="63" y="-84.58" font-family="Times New Roman,serif" font-size="14.00">2</text></g><!-- 1 --><g id="node2" class="node"><title>1</title><ellipse fill="none" stroke="black" cx="63" cy="-18" rx="27" ry="18"/><text text-anchor="middle" x="63" y="-12.57" font-family="Times New Roman,serif" font-size="14.00">1</text></g><!-- 2&#45;&gt;1 --><g id="edge1" class="edge"><title>2&#45;&gt;1</title><path fill="none" stroke="black" d="M63,-71.7C63,-64.24 63,-55.32 63,-46.97"/><polygon fill="black" stroke="black" points="66.5,-47.1 63,-37.1 59.5,-47.1 66.5,-47.1"/></g><!-- 4 --><g id="node3" class="node"><title>4</title><ellipse fill="none" stroke="black" cx="63" cy="-162" rx="27" ry="18"/><text text-anchor="middle" x="63" y="-156.57" font-family="Times New Roman,serif" font-size="14.00">4</text></g><!-- 4&#45;&gt;2 --><g id="edge2" class="edge"><title>4&#45;&gt;2</title><path fill="none" stroke="black" d="M63,-143.7C63,-136.24 63,-127.32 63,-118.97"/><polygon fill="black" stroke="black" points="66.5,-119.1 63,-109.1 59.5,-119.1 66.5,-119.1"/></g><!-- 8 --><g id="node4" class="node"><title>8</title><ellipse fill="none" stroke="black" cx="63" cy="-234" rx="27" ry="18"/><text text-anchor="middle" x="63" y="-228.57" font-family="Times New Roman,serif" font-size="14.00">8</text></g><!-- 8&#45;&gt;4 --><g id="edge3" class="edge"><title>8&#45;&gt;4</title><path fill="none" stroke="black" d="M63,-215.7C63,-208.24 63,-199.32 63,-190.97"/><polygon fill="black" stroke="black" points="66.5,-191.1 63,-181.1 59.5,-191.1 66.5,-191.1"/></g><!-- 16 --><g id="node5" class="node"><title>16</title><ellipse fill="none" stroke="black" cx="63" cy="-306" rx="27" ry="18"/><text text-anchor="middle" x="63" y="-300.57" font-family="Times New Roman,serif" font-size="14.00">16</text></g><!-- 16&#45;&gt;8 --><g id="edge4" class="edge"><title>16&#45;&gt;8</title><path fill="none" stroke="black" d="M63,-287.7C63,-280.24 63,-271.32 63,-262.97"/><polygon fill="black" stroke="black" points="66.5,-263.1 63,-253.1 59.5,-263.1 66.5,-263.1"/></g><!-- 5 --><g id="node6" class="node"><title>5</title><ellipse fill="none" stroke="black" cx="27" cy="-378" rx="27" ry="18"/><text text-anchor="middle" x="27" y="-372.57" font-family="Times New Roman,serif" font-size="14.00">5</text></g><!-- 5&#45;&gt;16 --><g id="edge5" class="edge"><title>5&#45;&gt;16</title><path fill="none" stroke="black" d="M35.35,-360.76C39.62,-352.46 44.92,-342.15 49.73,-332.79"/><polygon fill="black" stroke="black" points="53.23,-334.64 54.7,-324.15 47.01,-331.44 53.23,-334.64"/></g><!-- 32 --><g id="node7" class="node"><title>32</title><ellipse fill="none" stroke="black" cx="99" cy="-378" rx="27" ry="18"/><text text-anchor="middle" x="99" y="-372.57" font-family="Times New Roman,serif" font-size="14.00">32</text></g><!-- 32&#45;&gt;16 --><g id="edge6" class="edge"><title>32&#45;&gt;16</title><path fill="none" stroke="black" d="M90.65,-360.76C86.38,-352.46 81.08,-342.15 76.27,-332.79"/><polygon fill="black" stroke="black" points="78.99,-331.44 71.3,-324.15 72.77,-334.64 78.99,-331.44"/></g></g></svg>
