<?xml version="1.0" encoding="UTF-8" standalone="no"?>
<!DOCTYPE svg PUBLIC "-//W3C//DTD SVG 1.1//EN"
 "http://www.w3.org/Graphics/SVG/1.1/DTD/svg11.dtd">
<!-- Generated by graphviz version 8.0.5 (20230430.1635)
 -->
<!-- Title: G Pages: 1 -->
<svg width="426pt" height="764pt"
 viewBox="0.00 0.00 425.61 764.00" xmlns="http://www.w3.org/2000/svg" xmlns:xlink="http://www.w3.org/1999/xlink">
<g id="graph0" class="graph" transform="scale(1 1) rotate(0) translate(4 760)">
<title>G</title>
<polygon fill="white" stroke="none" points="-4,4 -4,-760 421.61,-760 421.61,4 -4,4"/>
<!-- 2 -->
<g id="node1" class="node">
<title>2</title>
<ellipse fill="none" stroke="black" cx="171" cy="-90" rx="27" ry="18"/>
<text text-anchor="middle" x="171" y="-84.58" font-family="Times New Roman,serif" font-size="14.00">2</text>
</g>
<!-- 1 -->
<g id="node2" class="node">
<title>1</title>
<ellipse fill="none" stroke="black" cx="171" cy="-18" rx="27" ry="18"/>
<text text-anchor="middle" x="171" y="-12.57" font-family="Times New Roman,serif" font-size="14.00">1</text>
</g>
<!-- 2&#45;&gt;1 -->
<g id="edge1" class="edge">
<title>2&#45;&gt;1</title>
<path fill="none" stroke="black" d="M171,-71.7C171,-64.24 171,-55.32 171,-46.97"/>
<polygon fill="black" stroke="black" points="174.5,-47.1 171,-37.1 167.5,-47.1 174.5,-47.1"/>
</g>
<!-- 4 -->
<g id="node3" class="node">
<title>4</title>
<ellipse fill="none" stroke="black" cx="171" cy="-162" rx="27" ry="18"/>
<text text-anchor="middle" x="171" y="-156.57" font-family="Times New Roman,serif" font-size="14.00">4</text>
</g>
<!-- 4&#45;&gt;2 -->
<g id="edge2" class="edge">
<title>4&#45;&gt;2</title>
<path fill="none" stroke="black" d="M171,-143.7C171,-136.24 171,-127.32 171,-118.97"/>
<polygon fill="black" stroke="black" points="174.5,-119.1 171,-109.1 167.5,-119.1 174.5,-119.1"/>
</g>
<!-- 8 -->
<g id="node4" class="node">
<title>8</title>
<ellipse fill="none" stroke="black" cx="171" cy="-234" rx="27" ry="18"/>
<text text-anchor="middle" x="171" y="-228.57" font-family="Times New Roman,serif" font-size="14.00">8</text>
</g>
<!-- 8&#45;&gt;4 -->
<g id="edge3" class="edge">
<title>8&#45;&gt;4</title>
<path fill="none" stroke="black" d="M171,-215.7C171,-208.24 171,-199.32 171,-190.97"/>
<polygon fill="black" stroke="black" points="174.5,-191.1 171,-181.1 167.5,-191.1 174.5,-191.1"/>
</g>
<!-- 16 -->
<g id="node5" class="node">
<title>16</title>
<ellipse fill="none" stroke="black" cx="171" cy="-306" rx="27" ry="18"/>
<text text-anchor="middle" x="171" y="-300.57" font-family="Times New Roman,serif" font-size="14.00">16</text>
</g>
<!-- 16&#45;&gt;8 -->
<g id="edge4" class="edge">
<title>16&#45;&gt;8</title>
<path fill="none" stroke="black" d="M171,-287.7C171,-280.24 171,-271.32 171,-262.97"/>
<polygon fill="black" stroke="black" points="174.5,-263.1 171,-253.1 167.5,-263.1 174.5,-263.1"/>
</g>
<!-- 5 -->
<g id="node6" class="node">
<title>5</title>
<ellipse fill="none" stroke="black" cx="135" cy="-378" rx="27" ry="18"/>
<text text-anchor="middle" x="135" y="-372.57" font-family="Times New Roman,serif" font-size="14.00">5</text>
</g>
<!-- 5&#45;&gt;16 -->
<g id="edge5" class="edge">
<title>5&#45;&gt;16</title>
<path fill="none" stroke="black" d="M143.35,-360.76C147.62,-352.46 152.92,-342.15 157.73,-332.79"/>
<polygon fill="black" stroke="black" points="161.23,-334.64 162.7,-324.15 155.01,-331.44 161.23,-334.64"/>
</g>
<!-- 32 -->
<g id="node7" class="node">
<title>32</title>
<ellipse fill="none" stroke="black" cx="225" cy="-378" rx="27" ry="18"/>
<text text-anchor="middle" x="225" y="-372.57" font-family="Times New Roman,serif" font-size="14.00">32</text>
</g>
<!-- 32&#45;&gt;16 -->
<g id="edge6" class="edge">
<title>32&#45;&gt;16</title>
<path fill="none" stroke="black" d="M213.02,-361.46C206.09,-352.49 197.24,-341.02 189.45,-330.92"/>
<polygon fill="black" stroke="black" points="191.83,-329.27 182.95,-323.49 186.29,-333.55 191.83,-329.27"/>
</g>
<!-- 64 -->
<g id="node8" class="node">
<title>64</title>
<ellipse fill="none" stroke="black" cx="243" cy="-450" rx="27" ry="18"/>
<text text-anchor="middle" x="243" y="-444.57" font-family="Times New Roman,serif" font-size="14.00">64</text>
</g>
<!-- 64&#45;&gt;32 -->
<g id="edge7" class="edge">
<title>64&#45;&gt;32</title>
<path fill="none" stroke="black" d="M238.64,-432.05C236.65,-424.32 234.25,-414.96 232.01,-406.27"/>
<polygon fill="black" stroke="black" points="235.2,-405.6 229.32,-396.79 228.42,-407.35 235.2,-405.6"/>
</g>
<!-- 10 -->
<g id="node9" class="node">
<title>10</title>
<ellipse fill="none" stroke="black" cx="135" cy="-450" rx="27" ry="18"/>
<text text-anchor="middle" x="135" y="-444.57" font-family="Times New Roman,serif" font-size="14.00">10</text>
</g>
<!-- 10&#45;&gt;5 -->
<g id="edge8" class="edge">
<title>10&#45;&gt;5</title>
<path fill="none" stroke="black" d="M135,-431.7C135,-424.24 135,-415.32 135,-406.97"/>
<polygon fill="black" stroke="black" points="138.5,-407.1 135,-397.1 131.5,-407.1 138.5,-407.1"/>
</g>
<!-- 21 -->
<g id="node10" class="node">
<title>21</title>
<ellipse fill="none" stroke="black" cx="243" cy="-522" rx="27" ry="18"/>
<text text-anchor="middle" x="243" y="-516.58" font-family="Times New Roman,serif" font-size="14.00">21</text>
</g>
<!-- 21&#45;&gt;64 -->
<g id="edge9" class="edge">
<title>21&#45;&gt;64</title>
<path fill="none" stroke="black" d="M243,-503.7C243,-496.24 243,-487.32 243,-478.97"/>
<polygon fill="black" stroke="black" points="246.5,-479.1 243,-469.1 239.5,-479.1 246.5,-479.1"/>
</g>
<!-- 128 -->
<g id="node11" class="node">
<title>128</title>
<ellipse fill="none" stroke="black" cx="315" cy="-522" rx="27" ry="18"/>
<text text-anchor="middle" x="315" y="-516.58" font-family="Times New Roman,serif" font-size="14.00">128</text>
</g>
<!-- 128&#45;&gt;64 -->
<g id="edge10" class="edge">
<title>128&#45;&gt;64</title>
<path fill="none" stroke="black" d="M300.08,-506.5C290.14,-496.83 276.88,-483.94 265.65,-473.02"/>
<polygon fill="black" stroke="black" points="268.51,-470.95 258.9,-466.49 263.63,-475.97 268.51,-470.95"/>
</g>
<!-- 3 -->
<g id="node12" class="node">
<title>3</title>
<ellipse fill="none" stroke="black" cx="54" cy="-522" rx="27" ry="18"/>
<text text-anchor="middle" x="54" y="-516.58" font-family="Times New Roman,serif" font-size="14.00">3</text>
</g>
<!-- 3&#45;&gt;10 -->
<g id="edge11" class="edge">
<title>3&#45;&gt;10</title>
<path fill="none" stroke="black" d="M70,-507.17C81.65,-497.1 97.63,-483.29 110.83,-471.89"/>
<polygon fill="black" stroke="black" points="112.75,-473.99 118.03,-464.8 108.18,-468.69 112.75,-473.99"/>
</g>
<!-- 20 -->
<g id="node13" class="node">
<title>20</title>
<ellipse fill="none" stroke="black" cx="135" cy="-522" rx="27" ry="18"/>
<text text-anchor="middle" x="135" y="-516.58" font-family="Times New Roman,serif" font-size="14.00">20</text>
</g>
<!-- 20&#45;&gt;10 -->
<g id="edge12" class="edge">
<title>20&#45;&gt;10</title>
<path fill="none" stroke="black" d="M135,-503.7C135,-496.24 135,-487.32 135,-478.97"/>
<polygon fill="black" stroke="black" points="138.5,-479.1 135,-469.1 131.5,-479.1 138.5,-479.1"/>
</g>
<!-- 256 -->
<g id="node14" class="node">
<title>256</title>
<ellipse fill="none" stroke="black" cx="315" cy="-594" rx="27" ry="18"/>
<text text-anchor="middle" x="315" y="-588.58" font-family="Times New Roman,serif" font-size="14.00">256</text>
</g>
<!-- 256&#45;&gt;128 -->
<g id="edge13" class="edge">
<title>256&#45;&gt;128</title>
<path fill="none" stroke="black" d="M315,-575.7C315,-568.24 315,-559.32 315,-550.97"/>
<polygon fill="black" stroke="black" points="318.5,-551.1 315,-541.1 311.5,-551.1 318.5,-551.1"/>
</g>
<!-- 6 -->
<g id="node15" class="node">
<title>6</title>
<ellipse fill="none" stroke="black" cx="45" cy="-594" rx="27" ry="18"/>
<text text-anchor="middle" x="45" y="-588.58" font-family="Times New Roman,serif" font-size="14.00">6</text>
</g>
<!-- 6&#45;&gt;3 -->
<g id="edge14" class="edge">
<title>6&#45;&gt;3</title>
<path fill="none" stroke="black" d="M47.22,-575.7C48.18,-568.24 49.33,-559.32 50.4,-550.97"/>
<polygon fill="black" stroke="black" points="54,-551.47 51.8,-541.1 47.05,-550.58 54,-551.47"/>
</g>
<!-- 40 -->
<g id="node16" class="node">
<title>40</title>
<ellipse fill="none" stroke="black" cx="135" cy="-594" rx="27" ry="18"/>
<text text-anchor="middle" x="135" y="-588.58" font-family="Times New Roman,serif" font-size="14.00">40</text>
</g>
<!-- 40&#45;&gt;20 -->
<g id="edge15" class="edge">
<title>40&#45;&gt;20</title>
<path fill="none" stroke="black" d="M135,-575.7C135,-568.24 135,-559.32 135,-550.97"/>
<polygon fill="black" stroke="black" points="138.5,-551.1 135,-541.1 131.5,-551.1 138.5,-551.1"/>
</g>
<!-- 42 -->
<g id="node17" class="node">
<title>42</title>
<ellipse fill="none" stroke="black" cx="243" cy="-594" rx="27" ry="18"/>
<text text-anchor="middle" x="243" y="-588.58" font-family="Times New Roman,serif" font-size="14.00">42</text>
</g>
<!-- 42&#45;&gt;21 -->
<g id="edge16" class="edge">
<title>42&#45;&gt;21</title>
<path fill="none" stroke="black" d="M243,-575.7C243,-568.24 243,-559.32 243,-550.97"/>
<polygon fill="black" stroke="black" points="246.5,-551.1 243,-541.1 239.5,-551.1 246.5,-551.1"/>
</g>
<!-- 85 -->
<g id="node18" class="node">
<title>85</title>
<ellipse fill="none" stroke="black" cx="315" cy="-666" rx="27" ry="18"/>
<text text-anchor="middle" x="315" y="-660.58" font-family="Times New Roman,serif" font-size="14.00">85</text>
</g>
<!-- 85&#45;&gt;256 -->
<g id="edge17" class="edge">
<title>85&#45;&gt;256</title>
<path fill="none" stroke="black" d="M315,-647.7C315,-640.24 315,-631.32 315,-622.97"/>
<polygon fill="black" stroke="black" points="318.5,-623.1 315,-613.1 311.5,-623.1 318.5,-623.1"/>
</g>
<!-- 512 -->
<g id="node19" class="node">
<title>512</title>
<ellipse fill="none" stroke="black" cx="388" cy="-666" rx="27" ry="18"/>
<text text-anchor="middle" x="388" y="-660.58" font-family="Times New Roman,serif" font-size="14.00">512</text>
</g>
<!-- 512&#45;&gt;256 -->
<g id="edge18" class="edge">
<title>512&#45;&gt;256</title>
<path fill="none" stroke="black" d="M373.23,-650.83C363,-641.03 349.21,-627.8 337.61,-616.68"/>
<polygon fill="black" stroke="black" points="340.64,-614.78 331,-610.38 335.8,-619.83 340.64,-614.78"/>
</g>
<!-- 13 -->
<g id="node20" class="node">
<title>13</title>
<ellipse fill="none" stroke="black" cx="99" cy="-666" rx="27" ry="18"/>
<text text-anchor="middle" x="99" y="-660.58" font-family="Times New Roman,serif" font-size="14.00">13</text>
</g>
<!-- 13&#45;&gt;40 -->
<g id="edge19" class="edge">
<title>13&#45;&gt;40</title>
<path fill="none" stroke="black" d="M107.35,-648.76C111.62,-640.46 116.92,-630.15 121.73,-620.79"/>
<polygon fill="black" stroke="black" points="125.23,-622.64 126.7,-612.15 119.01,-619.44 125.23,-622.64"/>
</g>
<!-- 80 -->
<g id="node21" class="node">
<title>80</title>
<ellipse fill="none" stroke="black" cx="171" cy="-666" rx="27" ry="18"/>
<text text-anchor="middle" x="171" y="-660.58" font-family="Times New Roman,serif" font-size="14.00">80</text>
</g>
<!-- 80&#45;&gt;40 -->
<g id="edge20" class="edge">
<title>80&#45;&gt;40</title>
<path fill="none" stroke="black" d="M162.65,-648.76C158.38,-640.46 153.08,-630.15 148.27,-620.79"/>
<polygon fill="black" stroke="black" points="150.99,-619.44 143.3,-612.15 144.77,-622.64 150.99,-619.44"/>
</g>
<!-- 84 -->
<g id="node22" class="node">
<title>84</title>
<ellipse fill="none" stroke="black" cx="243" cy="-666" rx="27" ry="18"/>
<text text-anchor="middle" x="243" y="-660.58" font-family="Times New Roman,serif" font-size="14.00">84</text>
</g>
<!-- 84&#45;&gt;42 -->
<g id="edge21" class="edge">
<title>84&#45;&gt;42</title>
<path fill="none" stroke="black" d="M243,-647.7C243,-640.24 243,-631.32 243,-622.97"/>
<polygon fill="black" stroke="black" points="246.5,-623.1 243,-613.1 239.5,-623.1 246.5,-623.1"/>
</g>
<!-- 12 -->
<g id="node23" class="node">
<title>12</title>
<ellipse fill="none" stroke="black" cx="27" cy="-666" rx="27" ry="18"/>
<text text-anchor="middle" x="27" y="-660.58" font-family="Times New Roman,serif" font-size="14.00">12</text>
</g>
<!-- 12&#45;&gt;6 -->
<g id="edge22" class="edge">
<title>12&#45;&gt;6</title>
<path fill="none" stroke="black" d="M31.36,-648.05C33.35,-640.32 35.75,-630.96 37.99,-622.27"/>
<polygon fill="black" stroke="black" points="41.58,-623.35 40.68,-612.79 34.8,-621.6 41.58,-623.35"/>
</g>
<!-- 1024 -->
<g id="node24" class="node">
<title>1024</title>
<ellipse fill="none" stroke="black" cx="389" cy="-738" rx="28.61" ry="18"/>
<text text-anchor="middle" x="389" y="-732.58" font-family="Times New Roman,serif" font-size="14.00">1024</text>
</g>
<!-- 1024&#45;&gt;512 -->
<g id="edge23" class="edge">
<title>1024&#45;&gt;512</title>
<path fill="none" stroke="black" d="M388.75,-719.7C388.65,-712.24 388.52,-703.32 388.4,-694.97"/>
<polygon fill="black" stroke="black" points="391.89,-695.05 388.24,-685.1 384.89,-695.15 391.89,-695.05"/>
</g>
<!-- 24 -->
<g id="node25" class="node">
<title>24</title>
<ellipse fill="none" stroke="black" cx="27" cy="-738" rx="27" ry="18"/>
<text text-anchor="middle" x="27" y="-732.58" font-family="Times New Roman,serif" font-size="14.00">24</text>
</g>
<!-- 24&#45;&gt;12 -->
<g id="edge24" class="edge">
<title>24&#45;&gt;12</title>
<path fill="none" stroke="black" d="M27,-719.7C27,-712.24 27,-703.32 27,-694.97"/>
<polygon fill="black" stroke="black" points="30.5,-695.1 27,-685.1 23.5,-695.1 30.5,-695.1"/>
</g>
<!-- 26 -->
<g id="node26" class="node">
<title>26</title>
<ellipse fill="none" stroke="black" cx="99" cy="-738" rx="27" ry="18"/>
<text text-anchor="middle" x="99" y="-732.58" font-family="Times New Roman,serif" font-size="14.00">26</text>
</g>
<!-- 26&#45;&gt;13 -->
<g id="edge25" class="edge">
<title>26&#45;&gt;13</title>
<path fill="none" stroke="black" d="M99,-719.7C99,-712.24 99,-703.32 99,-694.97"/>
<polygon fill="black" stroke="black" points="102.5,-695.1 99,-685.1 95.5,-695.1 102.5,-695.1"/>
</g>
<!-- 160 -->
<g id="node27" class="node">
<title>160</title>
<ellipse fill="none" stroke="black" cx="171" cy="-738" rx="27" ry="18"/>
<text text-anchor="middle" x="171" y="-732.58" font-family="Times New Roman,serif" font-size="14.00">160</text>
</g>
<!-- 160&#45;&gt;80 -->
<g id="edge26" class="edge">
<title>160&#45;&gt;80</title>
<path fill="none" stroke="black" d="M171,-719.7C171,-712.24 171,-703.32 171,-694.97"/>
<polygon fill="black" stroke="black" points="174.5,-695.1 171,-685.1 167.5,-695.1 174.5,-695.1"/>
</g>
<!-- 168 -->
<g id="node28" class="node">
<title>168</title>
<ellipse fill="none" stroke="black" cx="243" cy="-738" rx="27" ry="18"/>
<text text-anchor="middle" x="243" y="-732.58" font-family="Times New Roman,serif" font-size="14.00">168</text>
</g>
<!-- 168&#45;&gt;84 -->
<g id="edge27" class="edge">
<title>168&#45;&gt;84</title>
<path fill="none" stroke="black" d="M243,-719.7C243,-712.24 243,-703.32 243,-694.97"/>
<polygon fill="black" stroke="black" points="246.5,-695.1 243,-685.1 239.5,-695.1 246.5,-695.1"/>
</g>
<!-- 170 -->
<g id="node29" class="node">
<title>170</title>
<ellipse fill="none" stroke="black" cx="315" cy="-738" rx="27" ry="18"/>
<text text-anchor="middle" x="315" y="-732.58" font-family="Times New Roman,serif" font-size="14.00">170</text>
</g>
<!-- 170&#45;&gt;85 -->
<g id="edge28" class="edge">
<title>170&#45;&gt;85</title>
<path fill="none" stroke="black" d="M315,-719.7C315,-712.24 315,-703.32 315,-694.97"/>
<polygon fill="black" stroke="black" points="318.5,-695.1 315,-685.1 311.5,-695.1 318.5,-695.1"/>
</g>
</g>
</svg>
